<svg width="49" height="51" viewBox="0 0 49 51" fill="none" xmlns="http://www.w3.org/2000/svg">
<path d="M37.3897 17.7861V42.4999C37.3892 43.9087 36.8605 45.2597 35.9197 46.2558C34.9789 47.252 33.703 47.8119 32.3725 47.8124H8.28991C6.95941 47.8119 5.68355 47.252 4.74274 46.2558C3.80194 45.2597 3.27319 43.9087 3.27271 42.4999V8.4999C3.27319 7.09109 3.80194 5.74013 4.74274 4.74396C5.68355 3.74778 6.95941 3.18791 8.28991 3.1874H23.8031C23.9845 3.18567 24.1658 3.19988 24.345 3.2299C25.4974 3.35886 26.572 3.9071 27.3854 4.78115L35.9649 14.0674C36.7021 14.8668 37.1801 15.8938 37.3295 16.9999C37.3699 17.2598 37.39 17.5228 37.3897 17.7861Z" fill="#F7F6F5"/>
<path d="M18.3244 13.8125H10.2969C10.0308 13.8125 9.77554 13.7006 9.58736 13.5013C9.39918 13.302 9.29346 13.0318 9.29346 12.75C9.29346 12.4682 9.39918 12.198 9.58736 11.9987C9.77554 11.7994 10.0308 11.6875 10.2969 11.6875H18.3244C18.5906 11.6875 18.8458 11.7994 19.034 11.9987C19.2222 12.198 19.3279 12.4682 19.3279 12.75C19.3279 13.0318 19.2222 13.302 19.034 13.5013C18.8458 13.7006 18.5906 13.8125 18.3244 13.8125ZM24.3451 20.1875H10.2969C10.0308 20.1875 9.77554 20.0756 9.58736 19.8763C9.39918 19.677 9.29346 19.4068 9.29346 19.125C9.29346 18.8432 9.39918 18.573 9.58736 18.3737C9.77554 18.1744 10.0308 18.0625 10.2969 18.0625H24.3451C24.6112 18.0625 24.8664 18.1744 25.0546 18.3737C25.2428 18.573 25.3485 18.8432 25.3485 19.125C25.3485 19.4068 25.2428 19.677 25.0546 19.8763C24.8664 20.0756 24.6112 20.1875 24.3451 20.1875ZM26.352 26.5625H10.2969C10.0308 26.5625 9.77554 26.4506 9.58736 26.2513C9.39918 26.052 9.29346 25.7818 9.29346 25.5C9.29346 25.2182 9.39918 24.948 9.58736 24.7487C9.77554 24.5494 10.0308 24.4375 10.2969 24.4375H26.352C26.6181 24.4375 26.8733 24.5494 27.0615 24.7487C27.2497 24.948 27.3554 25.2182 27.3554 25.5C27.3554 25.7818 27.2497 26.052 27.0615 26.2513C26.8733 26.4506 26.6181 26.5625 26.352 26.5625ZM20.3313 32.9375H10.2969C10.0308 32.9375 9.77554 32.8256 9.58736 32.6263C9.39918 32.427 9.29346 32.1568 9.29346 31.875C9.29346 31.5932 9.39918 31.323 9.58736 31.1237C9.77554 30.9244 10.0308 30.8125 10.2969 30.8125H20.3313C20.5974 30.8125 20.8527 30.9244 21.0409 31.1237C21.229 31.323 21.3348 31.5932 21.3348 31.875C21.3348 32.1568 21.229 32.427 21.0409 32.6263C20.8527 32.8256 20.5974 32.9375 20.3313 32.9375ZM20.3313 39.3125H10.2969C10.0308 39.3125 9.77554 39.2006 9.58736 39.0013C9.39918 38.802 9.29346 38.5318 9.29346 38.25C9.29346 37.9682 9.39918 37.698 9.58736 37.4987C9.77554 37.2994 10.0308 37.1875 10.2969 37.1875H20.3313C20.5974 37.1875 20.8527 37.2994 21.0409 37.4987C21.229 37.698 21.3348 37.9682 21.3348 38.25C21.3348 38.5318 21.229 38.802 21.0409 39.0013C20.8527 39.2006 20.5974 39.3125 20.3313 39.3125Z" fill="black"/>
<path d="M37.3295 17H29.3622C28.0317 16.9995 26.7558 16.4396 25.815 15.4434C24.8742 14.4472 24.3455 13.0963 24.345 11.6875V3.22998C25.4975 3.35894 26.572 3.90719 27.3854 4.78123L35.9649 14.0675C36.7022 14.8669 37.1801 15.8939 37.3295 17ZM43.871 27.8844C40.8909 27.0119 38.0559 25.6574 35.4661 23.8689C35.142 23.648 34.7647 23.5296 34.3793 23.5298C33.9938 23.53 33.6166 23.6477 33.2927 23.8689C30.7034 25.6572 27.8687 27.0114 24.8889 27.8833C24.4494 27.9941 24.0578 28.2582 23.7772 28.6331C23.4965 29.008 23.3431 29.4719 23.3416 29.9502V31.765C23.3389 34.3893 23.9496 36.9735 25.1191 39.2872C26.2886 41.6009 27.9806 43.5723 30.0442 45.0255L33.2653 47.2989C33.5944 47.5334 33.9821 47.6588 34.3788 47.659C34.7755 47.6592 35.1633 47.5342 35.4927 47.3L38.7146 45.0255C40.7783 43.5723 42.4703 41.6009 43.6398 39.2872C44.8093 36.9735 45.4199 34.3893 45.4173 31.765V29.9502C45.416 29.4721 45.2627 29.0083 44.9822 28.6336C44.7017 28.2588 44.3103 27.9949 43.871 27.8844Z" fill="#FF953A"/>
<path d="M33.3761 38.25C33.2443 38.2502 33.1138 38.2227 32.992 38.1693C32.8703 38.1159 32.7597 38.0375 32.6667 37.9387L30.6598 35.8137C30.4744 35.6138 30.3711 35.3446 30.3723 35.0645C30.3735 34.7844 30.4791 34.5161 30.6662 34.3181C30.8532 34.12 31.1066 34.0082 31.3711 34.0069C31.6356 34.0057 31.8899 34.1151 32.0787 34.3113L33.3761 35.6851L36.6804 32.1863C36.7734 32.0866 36.884 32.0074 37.006 31.9532C37.128 31.8989 37.2589 31.8708 37.3912 31.8704C37.5235 31.8699 37.6546 31.8972 37.7769 31.9506C37.8992 32.004 38.0103 32.0825 38.1038 32.1815C38.1974 32.2806 38.2715 32.3983 38.3219 32.5278C38.3723 32.6573 38.3981 32.796 38.3977 32.9361C38.3972 33.0762 38.3707 33.2148 38.3195 33.3439C38.2683 33.4731 38.1934 33.5903 38.0993 33.6887L34.0855 37.9387C33.9925 38.0375 33.8819 38.1159 33.7602 38.1693C33.6384 38.2227 33.5079 38.2502 33.3761 38.25Z" fill="#F7F6F5"/>
<path d="M32.3725 47.8125H8.28991C6.95975 47.8108 5.68451 47.2506 4.74394 46.2547C3.80337 45.2587 3.27427 43.9085 3.27271 42.5V8.5C3.27427 7.09154 3.80337 5.74125 4.74394 4.74532C5.68451 3.74939 6.95975 3.18915 8.28991 3.1875H23.8031C24.4716 3.18796 25.1333 3.3294 25.7496 3.60357C26.3659 3.87774 26.9244 4.27915 27.3926 4.78436L35.9601 14.0688C36.8783 15.0618 37.3916 16.3968 37.3897 17.7865V25.7023C37.3897 25.9841 37.284 26.2544 37.0958 26.4536C36.9076 26.6529 36.6524 26.7648 36.3863 26.7648C36.1201 26.7648 35.8649 26.6529 35.6767 26.4536C35.4886 26.2544 35.3828 25.9841 35.3828 25.7023V17.7865C35.384 16.9514 35.0754 16.1491 34.5234 15.5526L25.956 6.26812C25.6751 5.96534 25.3401 5.72488 24.9704 5.5608C24.6008 5.39672 24.2039 5.31231 23.8031 5.3125H8.28991C7.49179 5.31342 6.72661 5.64954 6.16225 6.24712C5.5979 6.84469 5.28046 7.65491 5.27959 8.5V42.5C5.28046 43.3451 5.5979 44.1553 6.16225 44.7529C6.72661 45.3505 7.49179 45.6866 8.28991 45.6875H32.3725C32.7505 45.6891 33.1251 45.6118 33.4749 45.4603C33.5967 45.4069 33.7272 45.3795 33.8589 45.3795C33.9907 45.3796 34.1212 45.4071 34.2429 45.4605C34.3646 45.514 34.4752 45.5923 34.5683 45.6911C34.6614 45.7898 34.7353 45.907 34.7856 46.0359C34.8359 46.1649 34.8618 46.303 34.8617 46.4426C34.8615 46.5821 34.8354 46.7202 34.7849 46.8491C34.7343 46.9779 34.6603 47.095 34.567 47.1935C34.4737 47.2921 34.363 47.3702 34.2412 47.4234C33.6486 47.6823 33.0135 47.8145 32.3725 47.8125Z" fill="black"/>
<path d="M31.961 16.9999H29.3622C28.032 16.9983 26.7568 16.438 25.8162 15.4421C24.8757 14.4462 24.3466 13.0959 24.345 11.6874V4.57886C24.345 4.29706 24.4507 4.02681 24.6389 3.82756C24.8271 3.6283 25.0823 3.51636 25.3484 3.51636C25.6146 3.51636 25.8698 3.6283 26.058 3.82756C26.2462 4.02681 26.3519 4.29706 26.3519 4.57886V11.6874C26.3528 12.5325 26.6702 13.3428 27.2346 13.9403C27.7989 14.5379 28.5641 14.874 29.3622 14.8749H31.961C32.2271 14.8749 32.4823 14.9869 32.6705 15.1861C32.8587 15.3854 32.9644 15.6556 32.9644 15.9374C32.9644 16.2192 32.8587 16.4895 32.6705 16.6887C32.4823 16.888 32.2271 16.9999 31.961 16.9999ZM34.3794 47.6589C33.9825 47.6586 33.5947 47.5332 33.2652 47.2988L30.0442 45.0254C27.9805 43.5722 26.2885 41.6008 25.119 39.2871C23.9496 36.9734 23.3389 34.3892 23.3416 31.7649V29.9502C23.3431 29.4718 23.4965 29.0079 23.7772 28.633C24.0578 28.2581 24.4494 27.9941 24.8889 27.8833C27.8687 27.0113 30.7034 25.6572 33.2927 23.8688C33.6166 23.6477 33.9938 23.53 34.3793 23.5298C34.7647 23.5296 35.142 23.6469 35.4661 23.8678C38.0559 25.6563 40.8909 27.0118 43.871 27.8843C44.3103 27.9949 44.7017 28.2588 44.9822 28.6335C45.2627 29.0083 45.416 29.472 45.4173 29.9502V31.7649C45.4199 34.3892 44.8093 36.9734 43.6398 39.2871C42.4703 41.6009 40.7783 43.5722 38.7146 45.0255L35.4926 47.2999C35.1632 47.5335 34.7758 47.6584 34.3794 47.6589ZM34.3765 25.6525C31.6021 27.5699 28.563 29.0187 25.368 29.9471L25.3484 31.7649C25.3461 34.0393 25.8753 36.279 26.8888 38.2842C27.9024 40.2895 29.3689 41.998 31.1574 43.2574L34.3794 45.5318L37.6014 43.2574C39.39 41.998 40.8564 40.2895 41.87 38.2842C42.8836 36.279 43.4128 34.0393 43.4104 31.7649V29.9502C40.208 29.0215 37.1612 27.5724 34.3784 25.6545L34.3765 25.6525Z" fill="black"/>
</svg>
