<svg width="61" height="18" viewBox="0 0 61 18" fill="none" xmlns="http://www.w3.org/2000/svg">
<path d="M7.92055 10.916C8.11255 11.072 8.29255 11.312 8.46055 11.636C8.64055 11.96 8.73055 12.374 8.73055 12.878C8.73055 13.322 8.63455 13.73 8.44255 14.102C8.26255 14.474 8.00455 14.798 7.66855 15.074C7.34455 15.338 6.94855 15.548 6.48055 15.704C6.02455 15.848 5.52055 15.92 4.96855 15.92C3.87655 15.92 2.97655 15.65 2.26855 15.11C1.56055 14.57 1.06855 13.88 0.792547 13.04L2.50255 12.104C3.01855 13.34 3.74455 13.958 4.68055 13.958C5.13655 13.958 5.50255 13.832 5.77855 13.58C6.06655 13.316 6.21055 12.962 6.21055 12.518C6.21055 12.014 6.03055 11.624 5.67055 11.348C5.32255 11.06 4.83055 10.916 4.19455 10.916H3.52855V9.026H9.97255V7.316H0.630547V5.444H13.8965V7.316H12.4565V17H9.97255V10.916H7.92055ZM19.8869 9.944V7.316H13.5329V5.444H23.8109V7.316H22.3709V17H19.8869V11.87H17.0969L17.2049 13.49C17.1449 13.55 17.0129 13.622 16.8089 13.706C16.6169 13.778 16.3949 13.814 16.1429 13.814C15.5309 13.814 15.0329 13.616 14.6489 13.22C14.2649 12.812 14.0729 12.284 14.0729 11.636C14.0729 10.508 14.7269 9.944 16.0349 9.944H19.8869ZM29.963 16.136L27.731 17.414L24.491 12.518C24.287 12.206 24.137 11.942 24.041 11.726C23.945 11.498 23.897 11.282 23.897 11.078C23.897 10.742 24.035 10.478 24.311 10.286C24.599 10.082 24.989 9.98 25.481 9.98L25.769 10.358C25.877 10.502 25.997 10.622 26.129 10.718C26.273 10.814 26.423 10.862 26.579 10.862C26.891 10.862 27.149 10.736 27.353 10.484C27.569 10.232 27.677 9.848 27.677 9.332C27.677 8.876 27.605 8.474 27.461 8.126C27.329 7.778 27.191 7.508 27.047 7.316H23.447V5.444H36.533V7.316H35.093V17H32.609V12.86C32.465 12.92 32.267 12.974 32.015 13.022C31.775 13.058 31.457 13.076 31.061 13.076C30.629 13.076 30.185 13.022 29.729 12.914C29.285 12.794 28.895 12.638 28.559 12.446C28.139 12.662 27.719 12.77 27.299 12.77H27.227L29.963 16.136ZM30.791 11.078C31.223 11.078 31.583 11.036 31.871 10.952C32.159 10.856 32.405 10.724 32.609 10.556V7.316H29.585C29.705 7.484 29.837 7.76 29.981 8.144C30.125 8.516 30.197 8.996 30.197 9.584C30.197 9.86 30.173 10.112 30.125 10.34C30.077 10.568 30.011 10.784 29.927 10.988C30.059 11.024 30.203 11.048 30.359 11.06C30.527 11.072 30.671 11.078 30.791 11.078ZM27.6055 1.106C27.8335 0.985999 28.1155 0.889999 28.4515 0.817999C28.7755 0.745999 29.1235 0.709999 29.4955 0.709999C30.4555 0.709999 31.2655 0.961999 31.9255 1.466C32.5855 1.958 33.1315 2.612 33.5635 3.428L34.9315 6.02H33.1135L32.3935 4.922C31.9735 4.274 31.5715 3.794 31.1875 3.482C30.7915 3.17 30.3115 3.014 29.7475 3.014C29.5075 3.014 29.2675 3.044 29.0275 3.104C28.7875 3.152 28.5715 3.212 28.3795 3.284L27.6055 1.106ZM40.4755 8.45C40.9435 8.45 41.3215 8.492 41.6095 8.576C41.9095 8.648 42.1915 8.762 42.4555 8.918V7.316H36.1735V5.444H46.3795V7.316H44.9395V17H42.4555V14.984C42.3595 15.08 42.1615 15.176 41.8615 15.272C41.5735 15.368 41.2135 15.416 40.7815 15.416C40.2655 15.416 39.7735 15.344 39.3055 15.2C38.8375 15.044 38.4235 14.822 38.0635 14.534C37.7035 14.234 37.4155 13.862 37.1995 13.418C36.9955 12.962 36.8935 12.434 36.8935 11.834C36.8935 11.318 36.9775 10.85 37.1455 10.43C37.3135 10.01 37.5535 9.656 37.8655 9.368C38.1775 9.068 38.5555 8.84 38.9995 8.684C39.4435 8.528 39.9355 8.45 40.4755 8.45ZM42.4735 10.916C42.3055 10.748 42.1015 10.616 41.8615 10.52C41.6215 10.424 41.3455 10.376 41.0335 10.376C40.5175 10.376 40.1155 10.514 39.8275 10.79C39.5515 11.054 39.4135 11.438 39.4135 11.942C39.4135 12.446 39.5635 12.83 39.8635 13.094C40.1755 13.346 40.5775 13.472 41.0695 13.472C41.4655 13.472 41.7955 13.352 42.0595 13.112C42.3355 12.86 42.4735 12.542 42.4735 12.158V10.916ZM51.9573 10.988C51.8613 10.868 51.7053 10.76 51.4893 10.664C51.2733 10.556 51.0273 10.502 50.7513 10.502C50.2953 10.502 49.9293 10.628 49.6533 10.88C49.3893 11.132 49.2573 11.486 49.2573 11.942C49.2573 12.41 49.3893 12.776 49.6533 13.04C49.9293 13.292 50.2773 13.418 50.6973 13.418C51.0093 13.418 51.2973 13.316 51.5613 13.112C51.8253 12.908 51.9573 12.596 51.9573 12.176V10.988ZM54.3873 17H51.9393V14.894C51.8433 14.99 51.6453 15.092 51.3453 15.2C51.0573 15.308 50.7033 15.362 50.2833 15.362C49.7913 15.362 49.3293 15.284 48.8973 15.128C48.4653 14.972 48.0873 14.744 47.7633 14.444C47.4513 14.132 47.1993 13.76 47.0073 13.328C46.8273 12.896 46.7373 12.398 46.7373 11.834C46.7373 11.294 46.8213 10.826 46.9893 10.43C47.1693 10.022 47.4093 9.68 47.7093 9.404C48.0093 9.128 48.3573 8.924 48.7533 8.792C49.1493 8.648 49.5753 8.576 50.0313 8.576C50.3793 8.576 50.7333 8.624 51.0933 8.72C51.4533 8.804 51.7353 8.93 51.9393 9.098V7.316H46.0173V5.444H60.4533V7.316H54.3873V9.152C54.5793 8.996 54.8373 8.876 55.1613 8.792C55.4973 8.696 55.8933 8.648 56.3493 8.648C56.8293 8.648 57.2673 8.726 57.6633 8.882C58.0713 9.026 58.4193 9.236 58.7073 9.512C59.0073 9.788 59.2353 10.13 59.3913 10.538C59.5593 10.946 59.6433 11.402 59.6433 11.906C59.6433 12.458 59.5473 12.944 59.3553 13.364C59.1633 13.784 58.9053 14.132 58.5813 14.408C58.2573 14.684 57.8733 14.894 57.4293 15.038C56.9973 15.182 56.5293 15.254 56.0253 15.254C55.8933 15.254 55.7253 15.248 55.5213 15.236C55.3173 15.212 55.1673 15.188 55.0713 15.164L55.2333 13.274C55.3293 13.298 55.4073 13.31 55.4673 13.31C55.5393 13.31 55.6353 13.31 55.7553 13.31C56.1153 13.31 56.4333 13.19 56.7093 12.95C56.9853 12.71 57.1233 12.362 57.1233 11.906C57.1233 11.486 57.0033 11.162 56.7633 10.934C56.5233 10.694 56.1813 10.574 55.7373 10.574C55.3293 10.574 54.9993 10.706 54.7473 10.97C54.5073 11.234 54.3873 11.618 54.3873 12.122V17Z" fill="white"/>
</svg>
